<?xml version="1.0" encoding="UTF-8" standalone="no"?>
<!-- Created with Inkscape (http://www.inkscape.org/) -->

<svg
   version="1.1"
   id="svg2"
   width="879.96002"
   height="166.05333"
   viewBox="0 0 879.96002 166.05333"
   sodipodi:docname="cu-master-brand-2018 (1).eps"
   xmlns:inkscape="http://www.inkscape.org/namespaces/inkscape"
   xmlns:sodipodi="http://sodipodi.sourceforge.net/DTD/sodipodi-0.dtd"
   xmlns="http://www.w3.org/2000/svg"
   xmlns:svg="http://www.w3.org/2000/svg">
  <defs
     id="defs6" />
  <sodipodi:namedview
     id="namedview4"
     pagecolor="#ffffff"
     bordercolor="#000000"
     borderopacity="0.25"
     inkscape:showpageshadow="2"
     inkscape:pageopacity="0.0"
     inkscape:pagecheckerboard="0"
     inkscape:deskcolor="#d1d1d1" />
  <g
     id="g8"
     inkscape:groupmode="layer"
     inkscape:label="ink_ext_XXXXXX"
     transform="matrix(1.3333333,0,0,-1.3333333,0,166.05333)">
    <g
       id="g10"
       transform="scale(0.1)">
      <path
         d="m 2040.62,1082.7 c -27.26,104.51 -85.42,132.68 -174.5,132.68 -163.58,0 -236.29,-123.59 -236.29,-266.267 0,-175.394 89.98,-291.722 237.21,-291.722 101.79,0 149.03,49.07 193.57,144.496 l 22.72,-2.735 c -11.81,-39.066 -31.82,-111.765 -46.36,-146.316 -25.44,-6.363 -107.23,-25.434 -170.85,-25.434 -229.93,0 -326.25,156.297 -326.25,300.793 0,187.225 144.5,317.185 343.51,317.185 77.26,0 138.14,-18.19 163.59,-23.63 7.28,-49.98 10.9,-89.98 16.37,-137.23 l -22.72,-1.82"
         style="fill:#211d1d;fill-opacity:1;fill-rule:nonzero;stroke:none"
         id="path12" />
      <path
         d="m 2715.16,970.93 v 129.04 c 0,99.05 -7.27,105.41 -79.97,110.88 v 20.9 h 239.92 v -20.9 c -76.33,-5.47 -83.61,-11.83 -83.61,-110.88 V 772.805 c 0,-99.047 7.28,-105.43 81.8,-110.879 v -20.899 h -245.39 v 20.899 c 79.98,5.449 87.25,11.832 87.25,110.879 V 934.574 H 2399.82 V 772.805 c 0,-99.047 7.27,-105.43 81.8,-110.879 v -20.899 h -239.94 v 20.899 c 74.52,5.449 81.8,11.832 81.8,110.879 v 327.165 c 0,99.05 -7.28,105.41 -85.43,110.88 v 20.9 h 239.92 v -20.9 c -70.88,-5.47 -78.15,-11.83 -78.15,-110.88 V 970.93 h 315.34"
         style="fill:#211d1d;fill-opacity:1;fill-rule:nonzero;stroke:none"
         id="path14" />
      <path
         d="m 3208,900.027 h 160.85 l -79.96,223.583 h -1.8 z m 173.6,-238.101 29.08,3.648 c 33.62,3.625 37.27,13.629 28.16,41.797 -6.33,21.813 -32.74,92.695 -58.17,158.125 H 3196.2 c -9.1,-23.633 -32.71,-94.512 -45.45,-132.683 -17.25,-52.696 -9.07,-64.528 31.82,-68.153 l 27.25,-2.734 v -20.899 h -194.47 v 20.899 c 59.07,6.359 66.34,11.832 98.16,92.699 l 187.2,482.575 20.9,8.18 64.53,-172.67 c 42.73,-115.433 82.71,-230.847 118.15,-323.538 29.08,-76.328 40.91,-82.703 97.2,-87.246 V 641.027 H 3381.6 v 20.899"
         style="fill:#211d1d;fill-opacity:1;fill-rule:nonzero;stroke:none"
         id="path16" />
      <path
         d="m 3899.84,929.109 c 11.79,-5.441 37.22,-10.898 68.13,-10.898 57.26,0 131.8,29.996 131.8,148.149 0,99.05 -51.81,139.02 -145.41,139.02 -26.37,0 -39.09,-1.8 -46.38,-4.53 -5.42,-1.83 -8.14,-6.37 -8.14,-24.55 z m 0,-156.304 c 0,-99.047 7.25,-105.43 95.39,-110.879 v -20.899 h -253.51 v 20.899 c 74.48,5.449 81.78,11.832 81.78,110.879 v 327.165 c 0,99.05 -7.3,105.41 -77.25,110.88 v 20.9 h 229.9 c 60.92,0 112.68,-10 150.87,-38.17 35.44,-25.44 58.17,-67.26 58.17,-124.51 0,-111.793 -89.96,-171.757 -177.2,-182.672 -14.54,-1.82 -30.02,-1.82 -40.91,-1.82 l -67.24,17.277 v -129.05"
         style="fill:#211d1d;fill-opacity:1;fill-rule:nonzero;stroke:none"
         id="path18" />
      <path
         d="m 4513.51,1231.75 219.93,-468.035 216.29,468.035 h 149.94 v -20.9 c -79.05,-6.38 -84.53,-10 -81.78,-110.88 l 7.26,-327.165 c 2.71,-101.785 5.47,-104.52 85.42,-110.879 v -20.899 h -239.91 v 20.899 c 76.31,6.359 79.07,9.094 78.14,110.879 l -3.65,366.245 h -3.61 L 4718.9,651.035 h -22.72 l -209.93,475.285 h -1.83 l -9.11,-253.554 c -3.6,-85.418 -3.6,-135.399 0,-163.567 4.54,-33.644 26.37,-42.73 85.42,-47.273 V 641.027 H 4347.2 v 20.899 c 50.88,4.543 69.95,13.629 76.31,47.273 5.47,28.168 10.93,82.684 15.47,172.66 l 10,190.851 c 6.36,121.77 0,131.76 -85.45,138.14 v 20.9 h 149.98"
         style="fill:#211d1d;fill-opacity:1;fill-rule:nonzero;stroke:none"
         id="path20" />
      <path
         d="m 5440.75,900.027 h 160.84 l -79.96,223.583 h -1.81 z m 173.56,-238.101 29.08,3.648 c 33.66,3.625 37.26,13.629 28.19,41.797 -6.36,21.813 -32.73,92.695 -58.16,158.125 h -184.49 c -9.08,-23.633 -32.74,-94.512 -45.45,-132.683 -17.26,-52.696 -9.08,-64.528 31.83,-68.153 l 27.26,-2.734 v -20.899 h -194.49 v 20.899 c 59.05,6.359 66.33,11.832 98.13,92.699 l 187.21,482.575 20.9,8.18 64.57,-172.67 c 42.68,-115.433 82.66,-230.847 118.1,-323.538 29.08,-76.328 40.91,-82.703 97.25,-87.246 v -20.899 h -219.93 v 20.899"
         style="fill:#211d1d;fill-opacity:1;fill-rule:nonzero;stroke:none"
         id="path22" />
      <path
         d="M 6514.25,634.672 H 6490.6 L 6096.17,1113.6 h -1.77 V 881.859 c 0,-95.421 3.6,-144.492 7.24,-172.66 4.54,-31.816 29.08,-44.539 89.07,-47.273 V 641.027 H 5972.6 v 20.899 c 49.98,1.824 73.59,15.457 78.17,47.273 3.61,28.168 7.25,77.239 7.25,172.66 v 197.211 c 0,65.43 -0.89,79.98 -17.26,100.88 -17.24,21.81 -41.79,28.16 -79.99,30.9 v 20.9 h 132.69 l 382.6,-458.031 h 1.82 v 217.199 c 0,95.422 -3.65,144.492 -7.25,172.662 -4.54,31.82 -29.09,44.53 -89.07,47.27 v 20.9 h 218.11 v -20.9 c -49.98,-1.82 -73.63,-15.45 -78.17,-47.27 -3.61,-28.17 -7.25,-77.24 -7.25,-172.662 V 634.672"
         style="fill:#211d1d;fill-opacity:1;fill-rule:nonzero;stroke:none"
         id="path24" />
      <path
         d="m 1727.63,468.871 v -16.246 c -56.4,-4.207 -62.05,-9.148 -62.05,-85.984 V 219.289 c 0,-59.949 7.75,-105.07 29.61,-136.7773 21.84,-31.0312 54.29,-48.6523 101.52,-48.6523 44.4,0 81.08,19.039 103.64,52.9023 23.25,35.2383 31.72,97.2893 31.72,156.5083 v 38.066 c 0,74.004 -2.81,112.766 -5.63,134.633 -3.52,24.707 -22.56,34.551 -69.1,36.656 v 16.246 h 169.2 v -16.246 c -38.79,-1.414 -57.11,-11.949 -60.63,-36.656 -2.81,-21.867 -5.64,-60.629 -5.64,-134.633 v -47.227 c 0,-81.82 -12.69,-139.609 -53.58,-183.3199 C 1876.38,18.3516 1825.63,0 1776.27,0 c -38.78,0 -83.19,9.14844 -115.63,35.9688 -37.37,30.3007 -54.28,78.2502 -54.28,158.6092 v 172.063 c 0,76.836 -5.65,81.777 -64.87,85.984 v 16.246 h 186.14"
         style="fill:#211d1d;fill-opacity:1;fill-rule:nonzero;stroke:none"
         id="path26" />
      <path
         d="m 2599.77,5.67969 h -18.33 L 2275.46,377.172 h -1.4 v -179.75 c 0,-74.051 2.82,-112.1134 5.63,-133.9532 3.52,-24.6602 22.56,-34.5469 69.1,-36.6485 V 10.6094 h -169.21 v 16.2109 c 38.79,1.3711 57.11,11.9883 60.64,36.6485 2.81,21.8398 5.63,59.9022 5.63,133.9532 v 153.016 c 0,50.707 -0.69,62.011 -13.39,78.253 -13.39,16.887 -32.42,21.829 -62.05,23.934 v 16.246 h 102.94 l 296.81,-355.34 h 1.41 v 168.492 c 0,74.004 -2.83,112.079 -5.64,133.946 -3.53,24.707 -22.57,34.551 -69.08,36.656 v 16.246 h 169.2 v -16.246 c -38.78,-1.414 -57.11,-11.949 -60.64,-36.656 -2.81,-21.867 -5.64,-59.942 -5.64,-133.946 V 5.67969"
         style="fill:#211d1d;fill-opacity:1;fill-rule:nonzero;stroke:none"
         id="path28" />
      <path
         d="m 2947.4,112.852 c 0,-76.8832 5.64,-81.8207 63.45,-86.0317 V 10.6094 h -186.13 v 16.2109 c 57.82,4.211 63.44,9.1485 63.44,86.0317 v 253.789 c 0,76.836 -5.62,81.777 -63.44,85.984 v 16.246 h 186.13 v -16.246 c -57.81,-4.207 -63.45,-9.148 -63.45,-85.984 V 112.852"
         style="fill:#211d1d;fill-opacity:1;fill-rule:nonzero;stroke:none"
         id="path30" />
      <path
         d="M 3376.79,6.37109 C 3328.83,132.57 3261.16,306.699 3230.85,384.949 c -22.56,58.528 -32.42,63.469 -74.73,67.676 v 16.246 h 171.33 v -16.246 l -22.59,-2.793 c -26.07,-3.562 -30.31,-10.609 -22.55,-32.441 18.34,-52.168 72.6,-191.051 124.08,-322.891 36.66,97.289 97.33,257.32 112.8,303.164 13.41,40.18 6.36,49.336 -25.35,52.856 l -21.14,2.105 v 16.246 h 154.39 v -16.246 c -47.27,-4.898 -53.62,-9.84 -79.71,-71.891 -9.16,-21.867 -96.56,-231.273 -149.46,-374.36291 h -21.13"
         style="fill:#211d1d;fill-opacity:1;fill-rule:nonzero;stroke:none"
         id="path32" />
      <path
         d="m 3835.8,366.641 c 0,76.836 -5.62,81.777 -62.01,85.984 v 16.246 h 308.76 c 0.73,-11.988 4.26,-63.473 7.78,-102.961 l -17.61,-2.109 c -7.06,35.242 -14.84,53.59 -25.4,64.89 -11.26,11.985 -34.56,16.887 -77.57,16.887 h -53.55 c -19.76,0 -21.18,-1.414 -21.18,-21.828 V 262.992 h 71.21 c 60.63,0 62.74,4.254 69.83,56.422 h 17.61 V 179.801 h -17.61 c -3.53,26.078 -5.68,40.168 -14.83,47.91 -9.16,7.777 -24.67,9.199 -55,9.199 h -71.21 V 112.121 c 0,-40.1796 4.26,-61.3319 17.62,-69.7929 13.41,-8.4687 38.81,-8.4687 71.94,-8.4687 40.18,0 73.3,3.5312 88.82,20.4219 11.98,12.7187 23.29,36.6992 33.86,69.0897 l 17.62,-2.101 c -3.52,-19.719 -19.04,-91.6216 -24.67,-110.6606 h -333.46 v 16.2109 c 63.43,4.211 69.05,9.1485 69.05,86.0317 v 253.789"
         style="fill:#211d1d;fill-opacity:1;fill-rule:nonzero;stroke:none"
         id="path34" />
      <path
         d="m 4405.49,232.648 h 40.91 c 28.91,0 51.47,3.571 70.47,19.043 30.34,23.977 40.9,58.528 40.9,93.079 0,74.039 -53.58,103.648 -106.43,103.648 -23.99,0 -33.87,-1.418 -39.49,-3.527 -4.21,-1.414 -6.36,-4.938 -6.36,-19.039 z m 0,-119.796 c 0,-76.8832 5.66,-81.8207 63.47,-86.0317 V 10.6094 h -187.53 v 16.2109 c 59.21,4.211 64.84,9.1485 64.84,86.0317 v 253.789 c 0,76.836 -5.63,81.777 -62.05,85.984 v 16.246 h 179.1 c 45.13,0 85.3,-6.359 111.39,-23.98 28.19,-17.661 46.53,-49.336 46.53,-90.239 0,-58.531 -35.96,-100.121 -93.07,-123.371 12.68,-21.14 41.6,-69.832 62.74,-100.859 25.4,-37.3439 40.18,-56.3829 59.22,-77.5236 14.82,-17.6601 27.5,-28.9179 52.89,-35.2382 L 4701.6,4.26172 h -9.88 c -81.05,2.10937 -105.75,26.76958 -132.52,65.56638 -21.88,31.7229 -51.48,83.8829 -71.21,117.0119 -11.3,18.351 -22.56,25.398 -44.43,25.398 h -38.07 v -99.386"
         style="fill:#211d1d;fill-opacity:1;fill-rule:nonzero;stroke:none"
         id="path36" />
      <path
         d="m 4861.67,134.68 c 11.31,-33.129 47.28,-111.3909 122,-111.3909 53.59,0 87.4,35.9297 87.4,90.9299 0,59.953 -45.81,84.621 -90.92,106.441 -23.29,11.309 -118.48,44.438 -118.48,129.051 0,69.785 52.9,129.687 145.25,129.687 19.72,0 43.71,-4.21 58.53,-9.148 9.15,-2.832 19.03,-6.32 26.77,-7.738 2.84,-24.668 7.05,-52.856 12.72,-95.184 l -17.66,-2.105 c -11.95,41.597 -31.71,90.929 -95.87,90.929 -50.07,0 -76.15,-36.656 -76.15,-78.254 0,-52.168 37.39,-75.414 90.97,-99.394 46.5,-20.453 120.54,-49.332 120.54,-136.785 C 5126.77,59.9414 5059.82,0 4970.26,0 c -25.4,0 -49.33,4.94141 -66.99,10.6094 -17.62,5.5898 -30.29,11.2695 -38.76,14.789 -5.63,18.3399 -13.41,68.4102 -20.46,106.4806 l 17.62,2.801"
         style="fill:#211d1d;fill-opacity:1;fill-rule:nonzero;stroke:none"
         id="path38" />
      <path
         d="m 5419.4,112.852 c 0,-76.8832 5.68,-81.8207 63.47,-86.0317 V 10.6094 h -186.11 v 16.2109 c 57.8,4.211 63.43,9.1485 63.43,86.0317 v 253.789 c 0,76.836 -5.63,81.777 -63.43,85.984 v 16.246 h 186.11 v -16.246 c -57.79,-4.207 -63.47,-9.148 -63.47,-85.984 V 112.852"
         style="fill:#211d1d;fill-opacity:1;fill-rule:nonzero;stroke:none"
         id="path40" />
      <path
         d="m 5872.07,112.852 c 0,-76.8832 5.63,-81.8207 74.73,-86.0317 V 10.6094 h -205.88 v 16.2109 c 66.27,4.211 71.89,9.1485 71.89,86.0317 v 332.726 h -33.13 c -62.74,0 -81.78,-9.148 -92.35,-22.558 -7.73,-9.883 -16.2,-29.61 -24.66,-60.633 h -17.62 c 2.79,43.011 7.04,88.133 8.47,124.062 h 9.84 c 10.57,-16.199 17.62,-17.578 36.65,-17.578 h 289.07 c 18.35,0 21.88,4.215 33.14,17.578 h 9.88 c 0.69,-29.566 4.21,-81.051 7.73,-121.914 l -17.61,-2.148 c -7.05,33.824 -14.79,53.582 -25.39,64.843 -11.96,13.446 -33.83,18.348 -77.53,18.348 h -47.23 V 112.852"
         style="fill:#211d1d;fill-opacity:1;fill-rule:nonzero;stroke:none"
         id="path42" />
      <path
         d="m 6413.52,112.852 c 0,-76.8832 5.67,-81.8207 73.35,-86.0317 V 10.6094 h -203.04 v 16.2109 c 64.84,4.211 70.48,9.1485 70.48,86.0317 v 80.347 c 0,12.68 -2.11,19.039 -15.52,42.289 -31.72,55.004 -59.22,105.754 -89.51,157.922 -30.34,52.168 -33.14,54.317 -74.05,59.215 v 16.246 h 169.92 v -16.246 l -32.44,-4.207 c -17.62,-2.84 -22.56,-9.195 -10.57,-31.027 31.71,-59.215 64.15,-117.743 98.7,-175.582 29.61,56.461 61.32,114.218 87.4,172.058 11.99,25.356 6.37,32.403 -20.41,35.238 l -28.23,3.52 v 16.246 h 155.13 v -16.246 c -47.27,-4.207 -50.79,-13.402 -80.4,-59.902 -31.71,-49.336 -58.49,-98.016 -88.82,-154.403 -10.58,-19.031 -11.99,-23.242 -11.99,-38.07 v -87.398"
         style="fill:#211d1d;fill-opacity:1;fill-rule:nonzero;stroke:none"
         id="path44" />
      <path
         d="M 567.695,603.438 0,35.9297 V 603.438 Z"
         style="fill:#a41835;fill-opacity:1;fill-rule:nonzero;stroke:none"
         id="path46" />
      <path
         d="M 0,639.852 V 1207.51 L 567.695,639.852 Z"
         style="fill:#a41835;fill-opacity:1;fill-rule:nonzero;stroke:none"
         id="path48" />
      <path
         d="M 1197.35,1233.15 629.707,665.57 v 567.58 z"
         style="fill:#a41835;fill-opacity:1;fill-rule:nonzero;stroke:none"
         id="path50" />
      <path
         d="M 593.371,665.57 25.7227,1233.15 H 593.371 Z"
         style="fill:#a41835;fill-opacity:1;fill-rule:nonzero;stroke:none"
         id="path52" />
      <path
         d="M 655.422,639.852 1223.06,1207.51 V 639.852 Z"
         style="fill:#a41835;fill-opacity:1;fill-rule:nonzero;stroke:none"
         id="path54" />
      <path
         d="M 1223.06,603.438 V 35.9297 L 655.422,603.438 Z"
         style="fill:#a41835;fill-opacity:1;fill-rule:nonzero;stroke:none"
         id="path56" />
      <path
         d="M 593.371,577.84 25.7227,10.25 H 593.371 Z"
         style="fill:#a41835;fill-opacity:1;fill-rule:nonzero;stroke:none"
         id="path58" />
      <path
         d="M 629.707,577.84 V 10.25 h 567.573 z"
         style="fill:#a41835;fill-opacity:1;fill-rule:nonzero;stroke:none"
         id="path60" />
    </g>
  </g>
</svg>
