<svg width="598" height="112" viewBox="0 0 598 112" fill="none" xmlns="http://www.w3.org/2000/svg">
<g clip-path="url(#clip0_79_2)">
<path d="M184.901 14.6318C182.431 5.23309 177.161 2.69973 169.089 2.69973C154.267 2.69973 147.679 13.8143 147.679 26.6454C147.679 42.4187 155.832 52.8802 169.173 52.8802C178.396 52.8802 182.676 48.4673 186.712 39.8855L188.771 40.1315C187.701 43.6448 185.888 50.1826 184.57 53.2898C182.265 53.8621 174.854 55.5771 169.089 55.5771C148.255 55.5771 139.528 41.5212 139.528 28.5265C139.528 11.6892 152.621 0.00180558 170.653 0.00180558C177.654 0.00180558 183.17 1.63765 185.476 2.12687C186.136 6.62162 186.464 10.2189 186.96 14.4681L184.901 14.6318Z" fill="white"/>
<path d="M246.021 24.6833V13.0787C246.021 4.171 245.362 3.59903 238.775 3.10711V1.22755H260.514V3.10711C253.598 3.59903 252.938 4.171 252.938 13.0787V42.5009C252.938 51.4083 253.598 51.9823 260.35 52.4724V54.3518H238.115V52.4724C245.362 51.9823 246.021 51.4083 246.021 42.5009V27.9529H217.448V42.5009C217.448 51.4083 218.107 51.9823 224.86 52.4724V54.3518H203.119V52.4724C209.871 51.9823 210.531 51.4083 210.531 42.5009V13.0787C210.531 4.171 209.871 3.59903 202.79 3.10711V1.22755H224.529V3.10711C218.107 3.59903 217.448 4.171 217.448 13.0787V24.6833H246.021Z" fill="white"/>
<path d="M290.677 31.0597H305.252L298.007 10.9527H297.844L290.677 31.0597ZM306.407 52.4724L309.042 52.1443C312.089 51.8183 312.419 50.9186 311.594 48.3855C311.02 46.4238 308.627 40.0493 306.323 34.1651H289.608C288.784 36.2905 286.644 42.6647 285.49 46.0974C283.927 50.8364 284.668 51.9005 288.373 52.2265L290.842 52.4724V54.3518H273.221V52.4724C278.574 51.9005 279.232 51.4083 282.116 44.1359L299.078 0.737439L300.972 0.00179881L306.819 15.5302C310.691 25.9112 314.313 36.2905 317.524 44.6263C320.159 51.4905 321.231 52.0638 326.332 52.4724V54.3518H306.407V52.4724Z" fill="white"/>
<path d="M353.365 28.4443C354.433 28.9337 356.738 29.4244 359.538 29.4244C364.727 29.4244 371.481 26.7268 371.481 16.1012C371.481 7.19357 366.786 3.59903 358.305 3.59903C355.916 3.59903 354.763 3.76091 354.103 4.00642C353.612 4.171 353.365 4.57928 353.365 6.21422V28.4443ZM353.365 42.5009C353.365 51.4083 354.022 51.9823 362.008 52.4724V54.3518H339.038V52.4724C345.787 51.9823 346.448 51.4083 346.448 42.5009V13.0787C346.448 4.171 345.787 3.59903 339.448 3.10711V1.22755H360.28C365.8 1.22755 370.49 2.12687 373.95 4.66022C377.161 6.94807 379.221 10.709 379.221 15.8575C379.221 25.9112 371.07 31.3038 363.165 32.2854C361.847 32.4491 360.445 32.4491 359.458 32.4491L353.365 30.8953V42.5009Z" fill="white"/>
<path d="M408.97 1.22755L428.898 43.3184L448.496 1.22755H462.082V3.10711C454.919 3.68087 454.423 4.00642 454.672 13.0787L455.33 42.5009C455.575 51.6545 455.825 51.9005 463.07 52.4724V54.3518H441.331V52.4724C448.246 51.9005 448.496 51.6545 448.412 42.5009L448.081 9.56415H447.754L427.58 53.4518H425.522L406.5 10.709H406.334L405.509 33.5113C405.182 41.193 405.182 45.6879 405.509 48.2211C405.92 51.2467 407.898 52.0638 413.249 52.4724V54.3518H393.901V52.4724C398.511 52.0638 400.239 51.2467 400.815 48.2211C401.311 45.6879 401.805 40.7852 402.217 32.6936L403.123 15.5302C403.699 4.57928 403.123 3.68087 395.38 3.10711V1.22755H408.97Z" fill="white"/>
<path d="M492.987 31.0597H507.561L500.316 10.9527H500.152L492.987 31.0597ZM508.714 52.4724L511.349 52.1443C514.398 51.8183 514.725 50.9186 513.903 48.3855C513.327 46.4238 510.937 40.0493 508.633 34.1651H491.916C491.094 36.2905 488.95 42.6647 487.798 46.0974C486.234 50.8364 486.975 51.9005 490.682 52.2265L493.152 52.4724V54.3518H475.529V52.4724C480.88 51.9005 481.54 51.4083 484.421 44.1359L501.384 0.737439L503.278 0.00179881L509.129 15.5302C512.996 25.9112 516.618 36.2905 519.83 44.6263C522.465 51.4905 523.537 52.0638 528.641 52.4724V54.3518H508.714V52.4724Z" fill="white"/>
<path d="M590.257 54.9233H588.114L552.375 11.8529H552.215V32.6936C552.215 41.2749 552.541 45.6879 552.871 48.2211C553.282 51.0823 555.506 52.2265 560.941 52.4724V54.3518H541.178V52.4724C545.707 52.3083 547.846 51.0823 548.261 48.2211C548.588 45.6879 548.918 41.2749 548.918 32.6936V14.9582C548.918 9.07403 548.838 7.76554 547.354 5.88598C545.792 3.92458 543.568 3.35352 540.106 3.10711V1.22755H552.13L586.797 42.4187H586.962V22.8858C586.962 14.3044 586.631 9.8915 586.305 7.35815C585.894 4.49655 583.669 3.35352 578.234 3.10711V1.22755H597.997V3.10711C593.469 3.27078 591.326 4.49655 590.914 7.35815C590.587 9.8915 590.257 14.3044 590.257 22.8858V54.9233Z" fill="white"/>
<path d="M156.541 69.834V71.295C151.43 71.6733 150.918 72.1177 150.918 79.0276V92.2791C150.918 97.6704 151.621 101.728 153.601 104.58C155.58 107.37 158.521 108.955 162.8 108.955C166.823 108.955 170.147 107.243 172.191 104.197C174.298 101.028 175.065 95.4481 175.065 90.1225V86.6992C175.065 80.0439 174.811 76.558 174.555 74.5915C174.236 72.3696 172.511 71.4843 168.294 71.295V69.834H183.625V71.295C180.11 71.4222 178.45 72.3696 178.131 74.5915C177.877 76.558 177.62 80.0439 177.62 86.6992V90.9464C177.62 98.3045 176.471 103.502 172.766 107.432C170.019 110.35 165.421 112 160.948 112C157.434 112 153.41 111.177 150.471 108.765C147.085 106.04 145.553 101.728 145.553 94.5014V79.0276C145.553 72.1177 145.041 71.6733 139.675 71.295V69.834H156.541Z" fill="white"/>
<path d="M235.566 111.489H233.905L206.18 78.0806H206.053V94.2457C206.053 100.905 206.308 104.328 206.563 106.292C206.882 108.51 208.607 109.399 212.824 109.588V111.046H197.492V109.588C201.007 109.465 202.667 108.51 202.987 106.292C203.241 104.328 203.497 100.905 203.497 94.2457V80.4848C203.497 75.9247 203.434 74.9081 202.284 73.4474C201.07 71.9287 199.346 71.4843 196.661 71.295V69.834H205.989L232.883 101.79H233.01V86.6374C233.01 79.9822 232.754 76.558 232.499 74.5915C232.179 72.3696 230.454 71.4843 226.24 71.295V69.834H241.571V71.295C238.057 71.4222 236.396 72.3696 236.077 74.5915C235.822 76.558 235.566 79.9822 235.566 86.6374V111.489Z" fill="white"/>
<path d="M267.064 101.851C267.064 108.765 267.575 109.209 272.814 109.588V111.046H255.948V109.588C261.187 109.209 261.697 108.765 261.697 101.851V79.0276C261.697 72.1177 261.187 71.6733 255.948 71.295V69.834H272.814V71.295C267.575 71.6733 267.064 72.1177 267.064 79.0276V101.851Z" fill="white"/>
<path d="M305.972 111.427C301.626 100.078 295.494 84.4183 292.748 77.3812C290.704 72.1177 289.81 71.6733 285.977 71.295V69.834H301.501V71.295L299.454 71.5462C297.092 71.8665 296.708 72.5003 297.411 74.4636C299.072 79.1551 303.989 91.645 308.654 103.502C311.975 94.7522 317.473 80.3605 318.874 76.2377C320.089 72.6243 319.451 71.8009 316.577 71.4843L314.662 71.295V69.834H328.651V71.295C324.368 71.7355 323.793 72.1799 321.429 77.7602C320.599 79.7267 312.679 98.5588 307.886 111.427H305.972Z" fill="white"/>
<path d="M347.563 79.0276C347.563 72.1177 347.053 71.6733 341.944 71.295V69.834H369.921C369.987 70.9121 370.307 75.5422 370.626 79.0934L369.03 79.283C368.39 76.1137 367.685 74.4636 366.728 73.4474C365.708 72.3696 363.597 71.9287 359.7 71.9287H354.848C353.057 71.9287 352.928 72.0559 352.928 73.8918V88.3489H359.381C364.874 88.3489 365.066 87.9663 365.708 83.2748H367.304V95.8303H365.708C365.388 93.4851 365.193 92.218 364.364 91.5217C363.534 90.8223 362.129 90.6945 359.381 90.6945H352.928V101.917C352.928 105.53 353.314 107.432 354.525 108.193C355.74 108.955 358.042 108.955 361.043 108.955C364.684 108.955 367.685 108.637 369.091 107.118C370.177 105.975 371.202 103.818 372.16 100.905L373.756 101.094C373.437 102.867 372.031 109.334 371.521 111.046H341.306V109.588C347.053 109.209 347.563 108.765 347.563 101.851V79.0276Z" fill="white"/>
<path d="M399.182 91.0777H402.889C405.509 91.0777 407.553 90.7566 409.274 89.3652C412.023 87.2089 412.98 84.1017 412.98 80.9945C412.98 74.3361 408.125 71.6733 403.337 71.6733C401.163 71.6733 400.268 71.8009 399.758 71.9905C399.377 72.1177 399.182 72.4346 399.182 73.7027V91.0777ZM399.182 101.851C399.182 108.765 399.695 109.209 404.933 109.588V111.046H387.941V109.588C393.306 109.209 393.816 108.765 393.816 101.851V79.0276C393.816 72.1177 393.306 71.6733 388.194 71.295V69.834H404.422C408.511 69.834 412.151 70.4059 414.515 71.9905C417.07 73.5788 418.731 76.4274 418.731 80.1058C418.731 85.3696 415.473 89.1098 410.298 91.2007C411.447 93.1018 414.068 97.4807 415.983 100.271C418.285 103.629 419.624 105.342 421.349 107.243C422.692 108.831 423.841 109.843 426.141 110.412L426.013 111.617H425.118C417.774 111.427 415.536 109.209 413.11 105.72C411.127 102.867 408.445 98.1766 406.658 95.1973C405.634 93.547 404.613 92.9132 402.632 92.9132H399.182V101.851Z" fill="white"/>
<path d="M440.517 99.8881C441.542 102.867 444.801 109.906 451.571 109.906C456.427 109.906 459.491 106.674 459.491 101.728C459.491 96.3365 455.34 94.1181 451.252 92.1558C449.142 91.1388 440.517 88.1595 440.517 80.5502C440.517 74.2743 445.31 68.8873 453.678 68.8873C455.465 68.8873 457.638 69.2659 458.981 69.71C459.81 69.9647 460.706 70.2783 461.407 70.4059C461.664 72.6243 462.046 75.1592 462.559 78.9658L460.959 79.1552C459.877 75.4143 458.086 70.9778 452.273 70.9778C447.736 70.9778 445.373 74.2743 445.373 78.0153C445.373 82.7068 448.76 84.7973 453.615 86.9539C457.829 88.7932 464.538 91.3903 464.538 99.2551C464.538 106.609 458.471 112 450.356 112C448.055 112 445.886 111.556 444.286 111.046C442.69 110.543 441.542 110.032 440.774 109.716C440.264 108.067 439.559 103.564 438.92 100.14L440.517 99.8881Z" fill="white"/>
<path d="M491.053 101.851C491.053 108.765 491.567 109.209 496.804 109.588V111.046H479.94V109.588C485.178 109.209 485.688 108.765 485.688 101.851V79.0276C485.688 72.1177 485.178 71.6733 479.94 71.295V69.834H496.804V71.295C491.567 71.6733 491.053 72.1177 491.053 79.0276V101.851Z" fill="white"/>
<path d="M532.069 101.851C532.069 108.765 532.579 109.209 538.841 109.588V111.046H520.186V109.588C526.191 109.209 526.7 108.765 526.7 101.851V71.9287H523.698C518.013 71.9287 516.288 72.7514 515.33 73.9574C514.63 74.8462 513.862 76.6203 513.096 79.4102H511.499C511.752 75.5422 512.137 71.4843 512.266 68.2532H513.158C514.116 69.71 514.755 69.834 516.479 69.834H542.672C544.334 69.834 544.654 69.4549 545.674 68.2532H546.57C546.632 70.9121 546.951 75.5422 547.27 79.217L545.674 79.4102C545.036 76.3684 544.334 74.5915 543.374 73.5788C542.29 72.3696 540.308 71.9287 536.349 71.9287H532.069V101.851Z" fill="white"/>
<path d="M581.13 101.851C581.13 108.765 581.644 109.209 587.776 109.588V111.046H569.379V109.588C575.254 109.209 575.765 108.765 575.765 101.851V94.6254C575.765 93.4851 575.574 92.9132 574.359 90.8223C571.485 85.8758 568.993 81.3118 566.248 76.6203C563.499 71.9287 563.246 71.7355 559.539 71.295V69.834H574.935V71.295L571.996 71.6733C570.399 71.9287 569.952 72.5003 571.038 74.4636C573.911 79.7889 576.851 85.0524 579.981 90.2539C582.664 85.1763 585.537 79.9822 587.901 74.7805C588.987 72.5003 588.478 71.8665 586.051 71.6116L583.493 71.295V69.834H597.55V71.295C593.267 71.6733 592.948 72.5003 590.265 76.682C587.391 81.1189 584.965 85.4967 582.217 90.5677C581.258 92.2791 581.13 92.6578 581.13 93.9913V101.851Z" fill="white"/>
<path d="M51.4389 57.7322L0 108.769V57.7322H51.4389Z" fill="#A41835"/>
<path d="M0 54.4575V3.40749L51.4389 54.4575H0Z" fill="#A41835"/>
<path d="M108.492 1.10166L57.0579 52.1447V1.10166H108.492Z" fill="#A41835"/>
<path d="M53.7655 52.1447L2.33075 1.10166H53.7655V52.1447Z" fill="#A41835"/>
<path d="M59.3879 54.4575L110.822 3.40749V54.4575H59.3879Z" fill="#A41835"/>
<path d="M110.822 57.7322V108.769L59.3879 57.7322H110.822Z" fill="#A41835"/>
<path d="M53.7655 60.0343L2.33075 111.078H53.7655V60.0343Z" fill="#A41835"/>
<path d="M57.0579 60.0343V111.078H108.486L57.0579 60.0343Z" fill="#A41835"/>
</g>
<defs>
<clipPath id="clip0_79_2">
<rect width="598" height="112" fill="white"/>
</clipPath>
</defs>
</svg>
